<?xml version="1.0" standalone="no"?>
<!-- <!DOCTYPE svg PUBLIC "-//W3C//DTD SVG 1.1//EN" "http://www.w3.org/Graphics/SVG/1.1/DTD/svg11.dtd"> -->
<svg t="1783224896391" class="icon" viewBox="0 0 1024 1024" version="1.1"
    xmlns="http://www.w3.org/2000/svg" p-id="1685" xmlns:xlink="http://www.w3.org/1999/xlink"
    width="200" height="200">
    <path
        d="M187.525977 430.846702c-6.372128 17.688871-26.057469 27.282367-44.222177 20.637016-17.688871-6.145977-27.282367-26.034956-20.886703-43.723827L237.146095 82.938967c6.395664-18.709107 25.830295-27.780717 43.996027-21.3871 10.091846 3.698229 17.688871 11.295254 20.886703 21.3871L416.780335 407.759891c6.395664 17.688871-3.197832 37.57785-20.886703 43.723827-18.187221 6.644327-37.85005-2.948145-44.494377-20.637016l-20.86419-60.687174L209.160717 370.159528 187.525977 430.846702 187.525977 430.846702zM845.037049 535.527856 845.037049 535.527856c13.039991-13.037944 35.401278-13.037944 48.39522 0 13.515828 14.220886 13.515828 35.357276 0 49.622164L756.591671 721.763444l-0.499373 0.748037-0.475837 0.475837-0.499373 0.499373 0 0-0.997724 0.475837-0.249687 0-0.227174 0.24764-0.249687 0-0.499373 0.500397-0.227174 0-0.499373 0.997724-0.475837 0.475837-0.499373 0 0 0.499373-0.521886 0.474814-0.475837 0-0.499373 0 0 0.251733-0.475837 0-0.49835 0.475837-0.476861 0-0.249687 0.272199-0.521886 0.249687-0.227174 0-0.499373 0.249687-0.249687 0.227174-0.475837 0-0.248663 0.249687-0.476861 0.249687-0.499373 0.249687-0.475837 0.24764-0.521886 0-0.499373 0-0.475837 0.227174-0.499373 0-0.227174 0-0.249687 0.500397-0.725524 0-0.249687 0-0.249687 0-0.499373 0-0.248663 0.475837-0.499373 0-0.475837 0.521886-0.499373 0 0 0-0.475837 0-0.499373 0-0.475837 0-0.77055 0-0.475837 0-0.249687 0-0.499373 0.475837-0.227174 0-0.748037 0 0 0-0.476861 0-0.997724 0-0.975211 0 0 0-0.975211 0 0 0-0.748037 0-0.227174 0-0.521886-0.475837-0.475837 0-0.49835 0 0 0-0.976234 0 0 0-0.499373 0-0.475837 0-0.521886 0-0.475837-0.521886-0.499373 0 0-0.475837-0.725524 0-0.499373 0-0.227174 0-0.499373 0-0.271176-0.500397-0.227174 0-0.499373 0-0.475837-0.227174-0.499373 0-0.475837 0 0-0.24764-0.499373-0.249687-1.24741-0.249687-0.249687-0.249687-0.227174 0-0.249687-0.227174-0.499373-0.249687-0.475837 0-0.249687-0.249687-0.248663-0.272199-0.476861 0-0.521886-0.475837-0.475837 0 0-0.251733-0.499373 0-0.475837 0 0-0.474814-0.49835-0.499373-0.476861 0-0.499373-0.475837-0.521886-0.997724-0.475837 0-0.499373-0.500397 0 0-0.475837-0.24764-0.499373-0.475837 0 0-0.475837-0.499373-0.499373 0-0.475837-0.475837-0.521886-0.748037-0.975211-0.475837L570.833967 585.15002c-13.515828-14.264888-13.515828-35.401278 0-49.622164 13.765515-13.037944 35.627429-13.037944 49.14428 0l77.650521 78.105892L697.628768 321.492108c0-18.913768 15.71696-34.629705 34.879392-34.629705 19.185968 0 34.402531 15.715937 34.402531 34.629705l0 292.14164L845.037049 535.527856 845.037049 535.527856zM142.327566 904.82269 142.327566 904.82269 307.425741 634.520451 170.335457 634.520451c-19.412119 0-34.402531-14.9679-34.402531-34.380018 0-19.163455 14.991436-34.652218 34.402531-34.652218l198.526519 0c18.935258 0 34.402531 15.488763 34.402531 34.652218 0 7.619538-1.971911 14.491039-5.918803 19.888979L231.748155 889.832278l137.113821 0c18.935258 0 34.402531 15.715937 34.402531 34.901905 0 19.140942-15.46625 34.629705-34.402531 34.629705L170.335457 959.363887c-19.412119 0-34.402531-15.488763-34.402531-34.629705C135.932925 917.114644 137.90586 910.243143 142.327566 904.82269L142.327566 904.82269zM305.974693 301.127292 305.974693 301.127292l-36.625152-103.208617-36.126802 103.208617L305.974693 301.127292 305.974693 301.127292z"
        fill="#ffffff" p-id="1686"></path>
</svg>