<?xml version="1.0" standalone="no"?>
<!-- <!DOCTYPE svg PUBLIC "-//W3C//DTD SVG 1.1//EN" "http://www.w3.org/Graphics/SVG/1.1/DTD/svg11.dtd"> -->
<svg t="1783224933192" class="icon" viewBox="0 0 1024 1024" version="1.1"
    xmlns="http://www.w3.org/2000/svg" p-id="2725" xmlns:xlink="http://www.w3.org/1999/xlink"
    width="200" height="200">
    <path
        d="M887.81824 540.90752c15.63648-14.5408 40.30464-14.5408 55.10144 0 15.07328 15.88224 15.07328 39.46496 0 55.37792L789.97504 748.9536l-0.5632 0.5632-0.80896 0.53248-0.53248 0.5632h-0.27648l-0.5632 0.53248-0.256 0.27648h-0.27648v0.53248h-0.5632l-0.53248 0.5632-0.5632 0.5632-0.53248 0.53248h-0.5632v0.5632l-0.53248 0.53248H782.31552l-0.27648 0.27648-0.5632 0.27648-0.27648 0.256h-0.53248l-0.27648 0.27648-0.27648 0.27648h-0.53248l-0.5632 0.53248h-0.53248l-0.5632 0.27648-1.09568 0.27648v0.27648l-0.80896 0.27648h-0.80896l-0.5632 0.24576h-1.09568v0.5632h-1.65888l-0.53248 0.53248-0.5632 0.5632H767.232l-0.256 0.53248h-8.20224l-0.5632-0.53248H754.93376l-0.5632-0.5632-0.256-0.53248H752.1792l-0.53248-0.5632h-0.5632l-0.53248-0.24576h-1.09568l-0.27648-0.27648-0.5632-0.27648-0.80896-0.27648-0.27648-0.27648h-0.8192l-0.5632-0.53248h-0.53248l-0.5632-0.27648v-0.27648h-0.53248l-0.5632-0.256v-0.27648l-0.8192-0.27648h-0.8192l-0.27648-0.53248-0.5632-0.5632h-0.256l-0.5632-0.53248-0.53248-0.5632-0.5632-0.5632-0.53248-0.53248h-0.5632v-0.27648l-0.5632-0.53248-1.09568-0.5632-0.53248-0.53248-0.80896-0.5632-0.83968-0.80896-151.87968-151.8592c-14.7968-15.91296-14.7968-39.49568 0-55.37792 15.07328-14.5408 39.46496-14.5408 54.53824 0l86.89664 87.71584V302.15168c0-21.10464 17.26464-38.36928 38.64576-38.36928 21.10464 0 38.64576 17.26464 38.64576 38.36928v326.47168l86.34368-87.71584z m-732.672 447.0784c-7.12704 20.00896-29.05088 30.67904-49.34656 23.57248-20.29568-6.88128-30.14656-29.32736-23.57248-49.62304l127.744-362.0864c7.65952-20.29568 29.61408-30.42304 49.34656-23.32672 11.50976 3.56352 19.73248 12.62592 23.57248 23.32672l127.71328 362.0864c7.69024 20.29568-3.28704 42.752-23.296 49.62304-20.00896 7.09632-41.9328-3.56352-49.05984-23.57248l-24.1152-67.45088H179.26144l-24.1152 67.45088z m91.53536-259.328l-40.56064 114.57536h80.57856L246.6816 728.65792zM135.95648 86.97856c-21.39136 0-38.93248-16.97792-38.93248-38.93248 0-21.10464 17.54112-37.80608 38.93248-37.80608h221.4912c21.39136 0 38.36928 16.70144 38.36928 37.80608 0 8.78592-2.46784 16.44544-7.12704 22.76352L204.4928 372.60288h152.94464c21.39136 0 38.36928 16.73216 38.36928 38.36928 0 21.39136-16.97792 38.36928-38.36928 38.36928h-221.4912c-21.39136 0-38.93248-16.97792-38.93248-38.36928 0-8.50944 2.75456-16.16896 7.41376-22.76352l184.2176-301.23008H135.95648z"
        p-id="2726" fill="#ffffff"></path>
</svg>